<svg width="76" height="60" viewBox="0 0 76 60" fill="none" xmlns="http://www.w3.org/2000/svg">
<path d="M39.3433 12.3072C38.9904 12.9235 38.7215 14.9143 38.305 17.4162L39.004 17.4084L40.2261 17.4166L40.3946 15.5017L40.4788 14.5443L40.6528 13.4992L40.917 12.3877L41.2709 11.1885L41.9367 9.26874L42.9958 6.86683L43.9871 4.31151L43.0185 6.60917L42.0209 8.31133L40.05 11.126L39.3433 12.3072Z" fill="#FF5A1A"/>
<path d="M43.9871 4.31151L43.0185 6.60917L42.0209 8.31133L40.05 11.126L39.3433 12.3072C38.9904 12.9235 38.7215 14.9143 38.305 17.4162L39.004 17.4084L40.2261 17.4166L40.3946 15.5017L40.4788 14.5443L40.6528 13.4992L40.917 12.3877L41.2709 11.1885L41.9367 9.26874L42.9958 6.86683L43.9871 4.31151ZM43.9871 4.31151L44.5997 1.58979" stroke="#FF5A1A"/>
<path d="M31.6536 13.9538C31.5774 14.6599 32.1291 16.5916 32.7504 19.0506L33.3878 18.7632L34.5106 18.2808L33.8973 16.459L33.5907 15.5482L33.3312 14.521L33.1276 13.3968L32.9711 12.1562L32.8115 10.1306L32.8189 7.50555L32.7028 4.76713L32.7364 7.26041L32.5049 9.21972L31.8276 12.5884L31.6536 13.9538Z" fill="#FF5A1A"/>
<path d="M32.7028 4.76713L32.7364 7.26041L32.5049 9.21972L31.8276 12.5884L31.6536 13.9538C31.5774 14.6599 32.1291 16.5916 32.7504 19.0506L33.3878 18.7632L34.5106 18.2808L33.8973 16.459L33.5907 15.5482L33.3312 14.521L33.1276 13.3968L32.9711 12.1562L32.8115 10.1306L32.8189 7.50555L32.7028 4.76713ZM32.7028 4.76713L32.173 2.0281" stroke="#FF5A1A"/>
<path d="M25.957 18.1815C26.1072 18.8756 27.2397 20.5349 28.6045 22.6728L29.1187 22.1991L30.0322 21.3874L28.876 19.8518L28.2979 19.084L27.7278 18.191L27.1802 17.1882L26.6407 16.0603L25.8507 14.1882L25.0303 11.6947L24.0569 9.13245L24.8747 11.488L25.2726 13.4204L25.6917 16.8309L25.957 18.1815Z" fill="#FF5A1A"/>
<path d="M24.0569 9.13245L24.8747 11.488L25.2726 13.4204L25.6917 16.8309L25.957 18.1815C26.1072 18.8756 27.2397 20.5349 28.6045 22.6728L29.1187 22.1991L30.0322 21.3874L28.876 19.8518L28.2979 19.084L27.7278 18.191L27.1802 17.1882L26.6407 16.0603L25.8507 14.1882L25.0303 11.6947L24.0569 9.13245ZM24.0569 9.13245L22.6907 6.70006" stroke="#FF5A1A"/>
<path d="M21.326 24.2778C21.8514 24.7556 23.7369 25.449 26.0893 26.397L26.233 25.7128L26.5054 24.5215L24.6724 23.9427L23.7559 23.6533L22.7732 23.2572L21.7452 22.7588L20.6509 22.1537L18.9208 21.0883L16.8049 19.5346L14.5247 18.0137L16.5583 19.4567L18.0043 20.7989L20.3258 23.3322L21.326 24.2778Z" fill="#FF5A1A"/>
<path d="M14.5247 18.0137L16.5583 19.4567L18.0043 20.7989L20.3258 23.3322L21.326 24.2778C21.8514 24.7556 23.7369 25.449 26.0893 26.397L26.233 25.7128L26.5054 24.5215L24.6724 23.9427L23.7559 23.6533L22.7732 23.2572L21.7452 22.7588L20.6509 22.1537L18.9208 21.0883L16.8049 19.5345L14.5247 18.0137ZM14.5247 18.0137L12 16.8267" stroke="#FF5A1A"/>
<path d="M20.5987 30.8979C21.2328 31.2176 23.2351 31.3805 25.7556 31.6639L25.7107 30.9662L25.6541 29.7454L23.733 29.6787L22.7725 29.6454L21.7196 29.527L20.5956 29.3221L19.3793 29.0323L17.427 28.4692L14.9723 27.5389L12.3681 26.6844L14.7138 27.5299L16.4665 28.4358L19.3817 30.2547L20.5987 30.8979Z" fill="#FF5A1A"/>
<path d="M12.3681 26.6844L14.7138 27.5299L16.4665 28.4358L19.3817 30.2547L20.5987 30.8979C21.2328 31.2176 23.2351 31.3805 25.7556 31.6639L25.7107 30.9662L25.6541 29.7454L23.733 29.6787L22.7725 29.6454L21.7196 29.527L20.5956 29.3221L19.3793 29.0323L17.427 28.4692L14.9723 27.5389L12.3681 26.6844ZM12.3681 26.6844L9.61769 26.217" stroke="#FF5A1A"/>
<path d="M46.1752 14.9717C45.5631 15.3319 44.3423 16.9273 42.7399 18.8933L43.3508 19.2332L44.408 19.8463L45.5039 18.2671L46.0518 17.4775L46.7212 16.6563L47.5018 15.822L48.4039 14.9562L49.934 13.6193L52.0449 12.0588L54.173 10.3315L52.1924 11.8463L50.482 12.8297L47.3747 14.2965L46.1752 14.9717Z" fill="#FF5A1A"/>
<path d="M54.173 10.3315L52.1924 11.8463L50.482 12.8297L47.3747 14.2965L46.1752 14.9717C45.5631 15.3319 44.3423 16.9273 42.7399 18.8933L43.3508 19.2332L44.408 19.8463L45.5039 18.2671L46.0518 17.4775L46.7212 16.6563L47.5018 15.822L48.4039 14.9562L49.934 13.6193L52.0449 12.0588L54.173 10.3315ZM54.173 10.3315L56.0547 8.27182" stroke="#FF5A1A"/>
<path d="M51.4296 18.9106C50.7345 19.0564 49.068 20.1781 46.9213 21.529L47.3916 22.0463L48.1975 22.965L49.7405 21.8188L50.512 21.2456L51.4087 20.6813L52.415 20.1403L53.5464 19.6081L55.4235 18.8302L57.9224 18.026L60.4908 17.0692L58.13 17.8718L56.1951 18.2571L52.782 18.6541L51.4296 18.9106Z" fill="#FF5A1A"/>
<path d="M60.4908 17.0692L58.13 17.8718L56.1951 18.2571L52.782 18.6541L51.4296 18.9106C50.7345 19.0564 49.068 20.1781 46.9213 21.529L47.3916 22.0463L48.1975 22.965L49.7405 21.8188L50.512 21.2456L51.4087 20.6813L52.415 20.1403L53.5464 19.6081L55.4235 18.8302L57.9224 18.026L60.4908 17.0692ZM60.4908 17.0692L62.932 15.7188" stroke="#FF5A1A"/>
<path d="M51.8319 25.5371C51.4059 25.4835 50.2675 25.7754 48.8154 26.1002L49.0104 26.4719L49.3396 27.1263L50.4099 26.7974L50.9451 26.633L51.5517 26.4973L52.2184 26.3952L52.9565 26.3219L54.1652 26.2575L55.7392 26.2978L57.3768 26.2682L55.8832 26.2535L54.7004 26.0931L52.6567 25.6562L51.8319 25.5371Z" fill="#FF5A1A"/>
<path d="M57.3768 26.2682L55.8832 26.2535L54.7004 26.0931L52.6567 25.6562L51.8319 25.5371C51.4059 25.4835 50.2675 25.7754 48.8154 26.1002L49.0104 26.4719L49.3396 27.1263L50.4099 26.7974L50.9451 26.633L51.5517 26.4973L52.2184 26.3952L52.9565 26.3219L54.1652 26.2575L55.7392 26.2978L57.3768 26.2682ZM57.3768 26.2682L59 26" stroke="#FF5A1A"/>
<path d="M53.1768 30.6851C52.6651 30.4548 51.0856 30.3943 49.094 30.2565L49.1588 30.8045L49.2551 31.7642L50.7668 31.7517L51.5226 31.7454L52.3545 31.8029L53.246 31.9262L54.2136 32.1133L55.7709 32.4906L57.7383 33.1402L59.82 33.725L57.9417 33.1385L56.5267 32.4843L54.1599 31.1504L53.1768 30.6851Z" fill="#FF5A1A"/>
<path d="M59.82 33.725L57.9417 33.1385L56.5267 32.4843L54.1599 31.1504L53.1768 30.6851C52.6651 30.4548 51.0856 30.3943 49.094 30.2565L49.1588 30.8045L49.2551 31.7642L50.7668 31.7517L51.5226 31.7454L52.3545 31.8029L53.246 31.9262L54.2136 32.1133L55.7709 32.4906L57.7383 33.1402L59.82 33.725ZM59.82 33.725L62 34" stroke="#FF5A1A"/>
<path d="M41 40.4729C49.129 36.6951 53 31.0283 52.2258 17.3336C51.5826 5.95633 60.8695 8.3753 64.6973 6.19077C64.8885 6.06155 65 6 65 6C64.9034 6.06732 64.8024 6.13078 64.6973 6.19077C63.593 6.93737 59.8323 9.94295 59.5806 16.3891C59.1935 26.306 59.9677 27.2504 56.4839 33.8617C52.8825 40.6959 47.5806 41.8896 41 40.4729Z" fill="#1AA179"/>
<path d="M41 40.4729C49.129 36.6951 53 31.0283 52.2258 17.3336C51.565 5.64389 61.3871 8.51857 65 6C65 6 59.8758 8.82722 59.5806 16.3891C59.1935 26.306 59.9677 27.2504 56.4839 33.8617C52.8825 40.6959 47.5806 41.8896 41 40.4729Z" stroke="white"/>
<path d="M39.4088 41.3495C44.3776 46.4747 49.7439 47.9133 60.1726 43.7845C68.8364 40.3544 69.2888 47.9542 71.9431 50.2625C72.0913 50.3725 72.167 50.4403 72.167 50.4403C72.0906 50.3853 72.016 50.3259 71.9431 50.2625C71.0871 49.6267 67.8127 47.5815 62.7494 49.0624C54.96 51.3406 54.4215 52.1666 48.4197 51.2632C42.2154 50.3294 39.96 46.6577 39.4088 41.3495Z" fill="#1AA179"/>
<path d="M39.4088 41.3495C44.3776 46.4747 49.7439 47.9133 60.1726 43.7845C69.0744 40.2602 69.3075 48.38 72.167 50.4403C72.167 50.4403 68.6891 47.3251 62.7494 49.0624C54.96 51.3406 54.4215 52.1666 48.4197 51.2632C42.2154 50.3294 39.96 46.6577 39.4088 41.3495Z" stroke="white"/>
<path d="M52.8595 38.4241C50.3845 40.4859 48.2698 42.2476 40 40.7503C41.25 42.2591 42.0833 43.3052 42.9167 43.798C43.75 44.2909 48.3333 46.7552 52.0833 45.7695C55.3373 44.9142 57.4783 43.3352 60 39.8551C62.5 36.4051 63.75 33.9408 66.25 30.4907C67.5339 28.7189 70.8333 25.5018 75 24.5764C72.5 22.0517 68.9494 19.8978 64.5833 21.6192C63.3333 22.1121 60.8333 24.516 59.5833 27.5336C58.3333 30.5511 56.1554 35.6792 52.9167 38.3766L52.8595 38.4241Z" fill="#026234" stroke="white"/>
<path d="M35 40.4729C26.871 36.6951 23 31.0283 23.7742 17.3336C24.4174 5.95633 15.1305 8.3753 11.3027 6.19077C11.1115 6.06155 11 6 11 6C11.0966 6.06732 11.1976 6.13078 11.3027 6.19077C12.407 6.93737 16.1677 9.94295 16.4194 16.3891C16.8065 26.306 16.0323 27.2504 19.5161 33.8617C23.1175 40.6959 28.4194 41.8896 35 40.4729Z" fill="#1AA179"/>
<path d="M35 40.4729C26.871 36.6951 23 31.0283 23.7742 17.3336C24.435 5.64389 14.6129 8.51857 11 6C11 6 16.1242 8.82722 16.4194 16.3891C16.8065 26.306 16.0323 27.2504 19.5161 33.8617C23.1175 40.6959 28.4194 41.8896 35 40.4729Z" stroke="white"/>
<path d="M36.5912 41.3495C31.6224 46.4747 26.2561 47.9133 15.8274 43.7845C7.16357 40.3544 6.71119 47.9542 4.05685 50.2625C3.90868 50.3725 3.83296 50.4403 3.83296 50.4403C3.90939 50.3853 3.98395 50.3259 4.05685 50.2625C4.9129 49.6267 8.1873 47.5815 13.2506 49.0624C21.04 51.3406 21.5785 52.1666 27.5803 51.2632C33.7846 50.3294 36.04 46.6577 36.5912 41.3495Z" fill="#1AA179"/>
<path d="M36.5912 41.3495C31.6224 46.4747 26.2561 47.9133 15.8274 43.7845C6.92563 40.2602 6.69253 48.38 3.83296 50.4403C3.83296 50.4403 7.3109 47.3251 13.2506 49.0624C21.04 51.3406 21.5785 52.1666 27.5803 51.2632C33.7846 50.3294 36.04 46.6577 36.5912 41.3495Z" stroke="white"/>
<path d="M23.0833 38.3766C25.5833 40.4587 27.6667 42.2591 36 40.7503C34.75 42.2591 33.9167 43.3052 33.0833 43.798C32.25 44.2909 27.6667 46.7552 23.9167 45.7695C20.6627 44.9142 18.5217 43.3352 16 39.8551C13.5 36.4051 12.25 33.9408 9.75 30.4907C8.46606 28.7189 5.16667 25.5018 1 24.5764C3.5 22.0517 7.0506 19.8978 11.4167 21.6192C12.6667 22.1121 15.1667 24.516 16.4167 27.5336C17.6667 30.5511 19.8446 35.6792 23.0833 38.3766Z" fill="#026234" stroke="white"/>
<circle cx="38" cy="29" r="12" fill="white"/>
<circle cx="38" cy="29" r="10" fill="#FF5A1A"/>
<path d="M38 44C37.8222 49.6471 36.5926 54.3529 36 56" stroke="#026234" stroke-width="2"/>
</svg>
